<?xml version="1.0" encoding="UTF-8" ?>
<!DOCTYPE svg PUBLIC "-//W3C//DTD SVG 1.1//EN" "http://www.w3.org/Graphics/SVG/1.1/DTD/svg11.dtd">
<svg width="192pt" height="192pt" viewBox="0 0 192 192" version="1.1" xmlns="http://www.w3.org/2000/svg">
<g id="#267f00ff">
<path fill="#267f00" opacity="1.00" d=" M 85.63 0.00 L 106.30 0.00 C 135.01 2.68 161.80 19.44 177.26 43.70 C 185.44 56.23 190.50 70.77 192.00 85.65 L 192.00 106.30 C 188.84 141.04 164.81 172.68 132.46 185.49 C 124.13 188.90 115.32 191.14 106.36 192.00 L 85.69 192.00 C 56.98 189.31 30.21 172.55 14.74 148.31 C 6.57 135.78 1.50 121.24 0.00 106.36 L 0.00 85.68 C 1.48 70.80 6.55 56.26 14.72 43.72 C 30.17 19.47 56.94 2.72 85.63 0.00 M 88.96 49.67 C 77.57 53.18 69.73 66.36 73.40 77.94 C 75.33 85.60 81.51 91.90 88.97 94.33 C 100.81 98.60 114.70 90.86 118.33 79.05 C 119.89 74.46 119.90 69.54 118.33 64.95 C 116.02 57.82 110.17 51.97 103.04 49.67 C 98.46 48.11 93.54 48.12 88.96 49.67 M 60.82 116.86 C 57.01 119.24 52.85 121.54 50.54 125.58 C 47.08 130.98 48.95 137.62 48.38 143.62 C 80.12 143.50 111.88 143.50 143.62 143.62 C 143.35 139.02 143.86 134.39 143.33 129.82 C 141.71 122.56 134.76 118.67 128.66 115.56 C 117.70 111.03 105.88 108.45 94.02 108.48 C 82.61 109.36 71.15 111.78 60.82 116.86 Z" />
</g>
<g id="#ffffffff">
<path fill="#ffffff" opacity="1.00" d=" M 88.96 49.67 C 93.54 48.12 98.46 48.11 103.04 49.67 C 110.17 51.97 116.02 57.82 118.33 64.95 C 119.90 69.54 119.89 74.46 118.33 79.05 C 114.70 90.86 100.81 98.60 88.97 94.33 C 81.51 91.90 75.33 85.60 73.40 77.94 C 69.73 66.36 77.57 53.18 88.96 49.67 Z" />
<path fill="#ffffff" opacity="1.00" d=" M 60.82 116.86 C 71.15 111.78 82.61 109.36 94.02 108.48 C 105.88 108.45 117.70 111.03 128.66 115.56 C 134.76 118.67 141.71 122.56 143.33 129.82 C 143.86 134.39 143.35 139.02 143.62 143.62 C 111.88 143.50 80.12 143.50 48.38 143.62 C 48.95 137.62 47.08 130.98 50.54 125.58 C 52.85 121.54 57.01 119.24 60.82 116.86 Z" />
</g>
</svg>
