<?xml version="1.0" encoding="UTF-8" ?>
<!DOCTYPE svg PUBLIC "-//W3C//DTD SVG 1.1//EN" "http://www.w3.org/Graphics/SVG/1.1/DTD/svg11.dtd">
<svg width="192pt" height="192pt" viewBox="0 0 192 192" version="1.1" xmlns="http://www.w3.org/2000/svg">
<g id="#267f00ff">
<path fill="#267f00" opacity="1.00" d=" M 85.58 0.00 L 106.38 0.00 C 128.06 2.34 149.05 12.06 164.27 27.77 C 179.94 42.96 189.63 63.92 192.00 85.55 L 192.00 106.39 C 189.65 128.05 179.95 149.02 164.27 164.23 C 149.06 179.93 128.07 189.64 106.41 192.00 L 85.60 192.00 C 64.19 189.65 43.41 180.16 28.26 164.75 C 12.29 149.49 2.39 128.29 0.00 106.40 L 0.00 85.62 C 2.36 63.71 12.29 42.51 28.27 27.23 C 43.42 11.83 64.17 2.34 85.58 0.00 M 73.19 69.11 C 61.44 74.46 52.55 84.83 47.54 96.58 C 49.72 101.17 52.23 105.61 55.30 109.67 C 62.76 118.97 73.46 125.70 85.16 128.08 C 101.13 132.06 118.68 126.72 130.83 115.88 C 136.84 110.63 141.07 103.75 144.47 96.61 C 141.76 90.67 138.47 84.86 133.89 80.15 C 123.56 68.98 108.11 62.96 92.98 63.59 C 86.19 64.53 79.25 65.74 73.19 69.11 Z" />
<path fill="#267f00" opacity="1.00" d=" M 88.37 74.73 C 95.53 72.16 103.85 73.50 109.89 78.11 C 119.07 84.90 121.55 98.97 115.45 108.58 C 111.31 116.08 102.35 120.23 93.94 119.49 C 86.39 118.76 79.12 114.25 75.84 107.30 C 69.28 95.57 75.37 78.83 88.37 74.73 M 88.21 86.23 C 85.82 87.81 84.88 90.61 83.56 93.00 C 83.47 95.34 83.47 97.69 83.56 100.03 C 85.16 103.54 87.28 107.27 91.29 108.37 C 95.39 110.30 100.17 109.20 103.80 106.77 C 106.14 105.17 107.11 102.42 108.44 100.05 C 108.53 97.69 108.53 95.33 108.44 92.98 C 106.84 89.44 104.70 85.71 100.67 84.62 C 96.58 82.71 91.81 83.80 88.21 86.23 Z" />
</g>
<g id="#ffffffff">
<path fill="#ffffff" opacity="1.00" d=" M 73.19 69.11 C 79.25 65.74 86.19 64.53 92.98 63.59 C 108.11 62.96 123.56 68.98 133.89 80.15 C 138.47 84.86 141.76 90.67 144.47 96.61 C 141.07 103.75 136.84 110.63 130.83 115.88 C 118.68 126.72 101.13 132.06 85.16 128.08 C 73.46 125.70 62.76 118.97 55.30 109.67 C 52.23 105.61 49.72 101.17 47.54 96.58 C 52.55 84.83 61.44 74.46 73.19 69.11 M 88.37 74.73 C 75.37 78.83 69.28 95.57 75.84 107.30 C 79.12 114.25 86.39 118.76 93.94 119.49 C 102.35 120.23 111.31 116.08 115.45 108.58 C 121.55 98.97 119.07 84.90 109.89 78.11 C 103.85 73.50 95.53 72.16 88.37 74.73 Z" />
<path fill="#ffffff" opacity="1.00" d=" M 88.21 86.23 C 91.81 83.80 96.58 82.71 100.67 84.62 C 104.70 85.71 106.84 89.44 108.44 92.98 C 108.53 95.33 108.53 97.69 108.44 100.05 C 107.11 102.42 106.14 105.17 103.80 106.77 C 100.17 109.20 95.39 110.30 91.29 108.37 C 87.28 107.27 85.16 103.54 83.56 100.03 C 83.47 97.69 83.47 95.34 83.56 93.00 C 84.88 90.61 85.82 87.81 88.21 86.23 Z" />
</g>
</svg>
