<?xml version="1.0" encoding="UTF-8" ?>
<!DOCTYPE svg PUBLIC "-//W3C//DTD SVG 1.1//EN" "http://www.w3.org/Graphics/SVG/1.1/DTD/svg11.dtd">
<svg width="192pt" height="192pt" viewBox="0 0 192 192" version="1.1" xmlns="http://www.w3.org/2000/svg">
<g id="#267f00ff">
<path fill="#267f00" opacity="1.00" d=" M 85.68 0.00 L 106.27 0.00 C 140.48 3.07 171.81 26.44 184.89 58.14 C 188.70 66.86 191.13 76.19 192.00 85.67 L 192.00 106.28 C 188.99 139.66 166.68 170.29 136.14 183.91 C 126.74 188.21 116.65 191.08 106.34 192.00 L 85.73 192.00 C 56.99 189.41 30.22 172.55 14.74 148.33 C 6.53 135.80 1.44 121.22 0.00 106.31 L 0.00 85.74 C 0.85 76.22 3.30 66.86 7.13 58.10 C 20.21 26.44 51.50 3.10 85.68 0.00 M 66.33 47.46 C 60.95 47.44 57.22 52.96 57.41 57.95 C 57.44 81.95 57.42 105.95 57.42 129.95 C 57.51 132.99 56.91 136.26 58.52 139.03 C 59.96 142.74 64.16 144.68 67.95 144.59 C 86.65 144.57 105.35 144.57 124.05 144.59 C 129.01 144.80 134.40 141.13 134.54 135.85 C 134.61 116.10 134.58 96.34 134.56 76.59 C 124.79 66.94 115.07 57.23 105.46 47.43 C 92.41 47.44 79.37 47.37 66.33 47.46 Z" />
<path fill="#267f00" opacity="1.00" d=" M 100.61 81.27 C 100.48 72.23 100.13 63.10 100.80 54.08 C 103.44 55.73 105.29 58.29 107.56 60.37 C 114.35 67.32 121.43 74.00 128.03 81.13 C 127.52 81.27 126.51 81.55 126.00 81.69 C 117.74 81.72 109.47 81.79 101.21 81.65 L 100.61 81.27 Z" />
</g>
<g id="#ffffffff">
<path fill="#ffffff" opacity="1.00" d=" M 66.33 47.46 C 79.37 47.37 92.41 47.44 105.46 47.43 C 115.07 57.23 124.79 66.94 134.56 76.59 C 134.58 96.34 134.61 116.10 134.54 135.85 C 134.40 141.13 129.01 144.80 124.05 144.59 C 105.35 144.57 86.65 144.57 67.95 144.59 C 64.16 144.68 59.96 142.74 58.52 139.03 C 56.91 136.26 57.51 132.99 57.42 129.95 C 57.42 105.95 57.44 81.95 57.41 57.95 C 57.22 52.96 60.95 47.44 66.33 47.46 M 100.61 81.27 L 101.21 81.65 C 109.47 81.79 117.74 81.72 126.00 81.69 C 126.51 81.55 127.52 81.27 128.03 81.13 C 121.43 74.00 114.35 67.32 107.56 60.37 C 105.29 58.29 103.44 55.73 100.80 54.08 C 100.13 63.10 100.48 72.23 100.61 81.27 Z" />
</g>
</svg>
