<?xml version="1.0" encoding="UTF-8" ?>
<!DOCTYPE svg PUBLIC "-//W3C//DTD SVG 1.1//EN" "http://www.w3.org/Graphics/SVG/1.1/DTD/svg11.dtd">
<svg width="192pt" height="192pt" viewBox="0 0 192 192" version="1.1" xmlns="http://www.w3.org/2000/svg">
<g id="#267f00ff">
<path fill="#267f00" opacity="1.00" d=" M 85.87 0.00 L 106.07 0.00 C 140.66 3.05 172.22 26.78 185.22 58.90 C 188.77 67.50 191.15 76.61 192.00 85.89 L 192.00 106.06 C 188.96 140.65 165.22 172.22 133.11 185.22 C 124.50 188.77 115.39 191.15 106.11 192.00 L 85.94 192.00 C 51.36 188.93 19.78 165.23 6.79 133.12 C 3.23 124.51 0.85 115.40 0.00 106.11 L 0.00 85.93 C 0.84 76.64 3.22 67.52 6.78 58.90 C 19.76 26.80 51.31 3.08 85.87 0.00 M 95.28 47.64 C 94.51 51.00 95.00 54.45 94.71 57.86 C 92.61 58.90 90.15 59.04 87.90 59.68 C 83.71 61.35 80.16 64.29 77.72 68.10 C 77.44 69.06 77.12 70.01 76.78 70.96 C 75.20 75.19 75.36 79.82 76.70 84.09 C 78.49 89.72 83.50 93.81 88.90 95.82 C 90.87 96.73 92.87 97.58 94.95 98.19 C 100.40 99.92 105.73 102.18 110.11 105.93 C 111.28 107.65 112.41 109.39 113.49 111.17 C 113.58 114.82 113.80 118.57 112.31 122.00 C 109.88 126.01 105.84 129.19 101.06 129.61 C 96.35 129.91 91.26 130.29 86.92 128.10 C 81.22 125.32 78.15 118.80 78.43 112.64 C 76.67 112.66 74.91 112.68 73.15 112.72 C 73.45 116.21 73.28 119.91 75.18 123.03 C 78.23 130.67 86.76 134.27 94.51 134.62 C 94.74 137.91 94.71 141.21 94.65 144.50 C 96.22 144.50 97.79 144.50 99.36 144.50 C 99.36 141.38 99.18 138.26 99.41 135.15 C 100.54 134.18 102.28 134.39 103.64 133.87 C 109.45 132.65 115.22 129.21 117.51 123.49 C 120.38 116.05 119.31 106.41 112.80 101.17 C 107.66 97.17 101.29 95.28 95.21 93.23 C 90.09 91.05 84.45 88.56 81.82 83.30 C 80.98 79.93 81.12 76.37 81.52 72.94 C 82.58 68.57 86.27 65.53 90.12 63.56 C 95.75 63.23 102.20 62.05 106.96 65.89 C 111.20 69.39 113.13 75.08 112.92 80.48 C 114.83 80.50 116.74 80.51 118.65 80.54 C 118.45 76.12 117.52 71.65 115.41 67.73 C 112.37 61.99 105.90 58.54 99.53 58.34 C 99.48 54.78 99.49 51.22 99.51 47.66 C 98.10 47.65 96.69 47.65 95.28 47.64 Z" />
</g>
<g id="#ffffffff">
<path fill="#ffffff" opacity="1.00" d=" M 95.28 47.64 C 96.69 47.65 98.10 47.65 99.51 47.66 C 99.49 51.22 99.48 54.78 99.53 58.34 C 105.90 58.54 112.37 61.99 115.41 67.73 C 117.52 71.65 118.45 76.12 118.65 80.54 C 116.74 80.51 114.83 80.50 112.92 80.48 C 113.13 75.08 111.20 69.39 106.96 65.89 C 102.20 62.05 95.75 63.23 90.12 63.56 C 86.27 65.53 82.58 68.57 81.52 72.94 C 81.12 76.37 80.98 79.93 81.82 83.30 C 84.45 88.56 90.09 91.05 95.21 93.23 C 101.29 95.28 107.66 97.17 112.80 101.17 C 119.31 106.41 120.38 116.05 117.51 123.49 C 115.22 129.21 109.45 132.65 103.64 133.87 C 102.28 134.39 100.54 134.18 99.41 135.15 C 99.18 138.26 99.36 141.38 99.36 144.50 C 97.79 144.50 96.22 144.50 94.65 144.50 C 94.71 141.21 94.74 137.91 94.51 134.62 C 86.76 134.27 78.23 130.67 75.18 123.03 C 73.28 119.91 73.45 116.21 73.15 112.72 C 74.91 112.68 76.67 112.66 78.43 112.64 C 78.15 118.80 81.22 125.32 86.92 128.10 C 91.26 130.29 96.35 129.91 101.06 129.61 C 105.84 129.19 109.88 126.01 112.31 122.00 C 113.80 118.57 113.58 114.82 113.49 111.17 C 112.41 109.39 111.28 107.65 110.11 105.93 C 105.73 102.18 100.40 99.92 94.95 98.19 C 92.87 97.58 90.87 96.73 88.90 95.82 C 83.50 93.81 78.49 89.72 76.70 84.09 C 75.36 79.82 75.20 75.19 76.78 70.96 C 77.12 70.01 77.44 69.06 77.72 68.10 C 80.16 64.29 83.71 61.35 87.90 59.68 C 90.15 59.04 92.61 58.90 94.71 57.86 C 95.00 54.45 94.51 51.00 95.28 47.64 Z" />
</g>
</svg>
