<?xml version="1.0" encoding="UTF-8" ?>
<!DOCTYPE svg PUBLIC "-//W3C//DTD SVG 1.1//EN" "http://www.w3.org/Graphics/SVG/1.1/DTD/svg11.dtd">
<svg width="192pt" height="192pt" viewBox="0 0 192 192" version="1.1" xmlns="http://www.w3.org/2000/svg">
<g id="#267f00ff">
<path fill="#267f00" opacity="1.00" d=" M 85.57 0.00 L 106.35 0.00 C 140.83 3.20 172.27 26.86 185.23 58.90 C 188.76 67.42 191.08 76.43 192.00 85.61 L 192.00 106.36 C 189.83 127.59 180.38 148.12 165.28 163.24 C 149.95 179.46 128.60 189.72 106.43 192.00 L 85.65 192.00 C 58.90 189.40 33.74 174.75 17.98 153.03 C 8.02 139.45 1.72 123.19 0.00 106.42 L 0.00 85.62 C 0.92 76.43 3.25 67.40 6.79 58.86 C 19.75 26.86 51.14 3.24 85.57 0.00 M 81.81 53.49 C 78.96 56.90 76.05 60.26 72.96 63.47 C 66.96 63.51 60.95 63.47 54.95 63.49 C 51.19 65.06 48.21 68.71 48.49 72.93 C 48.49 91.65 48.47 110.37 48.50 129.09 C 48.62 134.12 52.92 138.42 57.96 138.51 C 83.33 138.52 108.70 138.52 134.06 138.51 C 139.11 138.40 143.43 134.07 143.51 129.02 C 143.50 109.99 143.55 90.97 143.49 71.95 C 143.44 68.05 140.46 64.98 137.06 63.50 C 131.05 63.46 125.05 63.52 119.04 63.46 C 115.95 60.26 113.05 56.90 110.19 53.48 C 100.73 53.49 91.27 53.49 81.81 53.49 Z" />
<path fill="#267f00" opacity="1.00" d=" M 87.36 77.77 C 95.36 75.15 104.78 76.18 111.43 81.58 C 122.55 89.89 123.62 107.96 113.77 117.66 C 109.35 122.78 102.57 124.85 96.05 125.46 C 89.53 124.88 82.73 122.83 78.29 117.72 C 71.68 111.09 69.59 100.39 73.18 91.76 C 75.42 85.21 80.96 80.18 87.36 77.77 M 91.45 86.67 C 85.57 88.69 80.78 94.63 81.39 101.04 C 80.74 110.77 92.11 118.42 100.98 114.62 C 110.91 111.81 114.10 97.40 106.52 90.53 C 102.86 86.12 96.71 85.59 91.45 86.67 Z" />
</g>
<g id="#ffffffff">
<path fill="#ffffff" opacity="1.00" d=" M 81.81 53.49 C 91.27 53.49 100.73 53.49 110.19 53.48 C 113.05 56.90 115.95 60.26 119.04 63.46 C 125.05 63.52 131.05 63.46 137.06 63.50 C 140.46 64.98 143.44 68.05 143.49 71.95 C 143.55 90.97 143.50 109.99 143.51 129.02 C 143.43 134.07 139.11 138.40 134.06 138.51 C 108.70 138.52 83.33 138.52 57.96 138.51 C 52.92 138.42 48.62 134.12 48.50 129.09 C 48.47 110.37 48.49 91.65 48.49 72.93 C 48.21 68.71 51.19 65.06 54.95 63.49 C 60.95 63.47 66.96 63.51 72.96 63.47 C 76.05 60.26 78.96 56.90 81.81 53.49 M 87.36 77.77 C 80.96 80.18 75.42 85.21 73.18 91.76 C 69.59 100.39 71.68 111.09 78.29 117.72 C 82.73 122.83 89.53 124.88 96.05 125.46 C 102.57 124.85 109.35 122.78 113.77 117.66 C 123.62 107.96 122.55 89.89 111.43 81.58 C 104.78 76.18 95.36 75.15 87.36 77.77 Z" />
<path fill="#ffffff" opacity="1.00" d=" M 91.45 86.67 C 96.71 85.59 102.86 86.12 106.52 90.53 C 114.10 97.40 110.91 111.81 100.98 114.62 C 92.11 118.42 80.74 110.77 81.39 101.04 C 80.78 94.63 85.57 88.69 91.45 86.67 Z" />
</g>
</svg>
