<?xml version="1.0" encoding="UTF-8" ?>
<!DOCTYPE svg PUBLIC "-//W3C//DTD SVG 1.1//EN" "http://www.w3.org/Graphics/SVG/1.1/DTD/svg11.dtd">
<svg width="192pt" height="192pt" viewBox="0 0 192 192" version="1.1" xmlns="http://www.w3.org/2000/svg">
<g id="#267f00ff">
<path fill="#267f00" opacity="1.00" d=" M 85.54 0.00 L 106.39 0.00 C 140.61 3.20 171.83 26.54 184.95 58.23 C 188.62 66.93 191.04 76.15 192.00 85.55 L 192.00 106.42 C 188.79 140.64 165.44 171.85 133.74 184.96 C 125.05 188.62 115.84 191.05 106.45 192.00 L 85.58 192.00 C 64.61 189.81 44.31 180.55 29.24 165.76 C 12.78 150.37 2.32 128.83 0.00 106.45 L 0.00 85.60 C 0.94 76.16 3.39 66.91 7.07 58.17 C 20.20 26.53 51.37 3.24 85.54 0.00 M 80.90 50.16 C 66.51 54.79 54.79 66.50 50.17 80.90 C 46.66 90.59 46.68 101.41 50.17 111.10 C 54.79 125.48 66.55 137.18 80.91 141.83 C 84.75 143.55 89.01 143.43 93.04 144.41 C 102.10 144.76 111.32 142.71 119.26 138.24 C 129.93 132.52 138.06 122.57 141.84 111.10 C 145.34 101.41 145.35 90.59 141.84 80.90 C 137.22 66.50 125.50 54.78 111.10 50.16 C 101.41 46.68 90.59 46.66 80.90 50.16 Z" />
<path fill="#267f00" opacity="1.00" d=" M 104.06 70.46 C 108.79 68.76 110.23 63.67 110.78 59.18 C 119.50 62.80 126.97 69.50 131.24 77.94 C 138.99 92.15 136.51 111.32 125.17 122.92 C 123.22 120.60 121.50 117.70 118.55 116.57 C 115.90 116.27 113.23 116.48 110.58 116.49 C 109.88 111.01 110.68 105.47 110.14 99.98 C 109.74 97.62 107.30 96.23 105.04 96.44 C 95.22 96.42 85.41 96.48 75.59 96.42 C 75.87 93.07 74.82 89.34 76.13 86.23 C 79.77 84.50 84.32 86.35 88.23 85.29 C 89.44 84.64 90.51 83.41 90.53 81.97 C 90.68 78.37 90.34 74.76 90.80 71.17 C 95.24 71.39 99.66 71.06 104.06 70.46 Z" />
<path fill="#267f00" opacity="1.00" d=" M 56.42 95.95 C 56.64 92.91 55.87 89.49 57.94 86.92 C 65.98 94.31 73.46 102.29 81.25 109.94 C 82.33 112.65 81.06 115.88 82.40 118.59 C 83.64 122.35 87.37 125.14 91.41 124.65 C 91.64 128.30 91.69 131.97 91.34 135.61 C 85.88 134.10 80.15 132.90 75.38 129.68 C 64.16 122.43 55.78 109.64 56.42 95.95 Z" />
</g>
<g id="#ffffffff">
<path fill="#ffffff" opacity="1.00" d=" M 80.90 50.16 C 90.59 46.66 101.41 46.68 111.10 50.16 C 125.50 54.78 137.22 66.50 141.84 80.90 C 145.35 90.59 145.34 101.41 141.84 111.10 C 138.06 122.57 129.93 132.52 119.26 138.24 C 111.32 142.71 102.10 144.76 93.04 144.41 C 89.01 143.43 84.75 143.55 80.91 141.83 C 66.55 137.18 54.79 125.48 50.17 111.10 C 46.68 101.41 46.66 90.59 50.17 80.90 C 54.79 66.50 66.51 54.79 80.90 50.16 M 104.06 70.46 C 99.66 71.06 95.24 71.39 90.80 71.17 C 90.34 74.76 90.68 78.37 90.53 81.97 C 90.51 83.41 89.44 84.64 88.23 85.29 C 84.32 86.35 79.77 84.50 76.13 86.23 C 74.82 89.34 75.87 93.07 75.59 96.42 C 85.41 96.48 95.22 96.42 105.04 96.44 C 107.30 96.23 109.74 97.62 110.14 99.98 C 110.68 105.47 109.88 111.01 110.58 116.49 C 113.23 116.48 115.90 116.27 118.55 116.57 C 121.50 117.70 123.22 120.60 125.17 122.92 C 136.51 111.32 138.99 92.15 131.24 77.94 C 126.97 69.50 119.50 62.80 110.78 59.18 C 110.23 63.67 108.79 68.76 104.06 70.46 M 56.42 95.95 C 55.78 109.64 64.16 122.43 75.38 129.68 C 80.15 132.90 85.88 134.10 91.34 135.61 C 91.69 131.97 91.64 128.30 91.41 124.65 C 87.37 125.14 83.64 122.35 82.40 118.59 C 81.06 115.88 82.33 112.65 81.25 109.94 C 73.46 102.29 65.98 94.31 57.94 86.92 C 55.87 89.49 56.64 92.91 56.42 95.95 Z" />
</g>
</svg>
