<?xml version="1.0" encoding="UTF-8" ?>
<!DOCTYPE svg PUBLIC "-//W3C//DTD SVG 1.1//EN" "http://www.w3.org/Graphics/SVG/1.1/DTD/svg11.dtd">
<svg width="192pt" height="192pt" viewBox="0 0 192 192" version="1.1" xmlns="http://www.w3.org/2000/svg">
<g id="#267f00ff">
<path fill="#267f00" opacity="1.00" d=" M 85.67 0.00 L 106.28 0.00 C 136.96 2.90 165.37 21.81 180.28 48.71 C 186.68 60.04 190.64 72.73 192.00 85.66 L 192.00 106.29 C 189.82 127.54 180.39 148.11 165.27 163.24 C 149.92 179.49 128.51 189.73 106.32 192.00 L 85.73 192.00 C 51.48 188.83 20.20 165.51 7.07 133.78 C 3.38 125.04 0.96 115.77 0.00 106.34 L 0.00 85.71 C 1.34 72.74 5.33 60.02 11.75 48.66 C 26.65 21.80 55.03 2.92 85.67 0.00 M 105.84 48.11 C 105.71 54.80 105.83 61.49 105.77 68.19 C 90.71 68.79 75.59 68.30 60.52 68.43 C 60.42 72.44 60.48 76.44 60.50 80.45 C 75.44 80.57 90.46 80.11 105.36 80.67 C 106.38 87.12 105.41 93.98 105.80 100.58 C 114.57 91.77 123.59 83.19 132.08 74.11 C 123.31 65.48 114.60 56.76 105.84 48.11 M 60.93 117.91 C 69.70 126.52 78.34 135.27 87.15 143.85 C 87.35 137.18 87.16 130.50 87.23 123.83 C 102.29 123.20 117.41 123.70 132.50 123.58 C 132.58 119.56 132.53 115.55 132.50 111.54 C 118.65 111.61 104.80 111.50 90.95 111.60 C 89.67 111.66 88.42 111.46 87.20 111.13 C 87.26 104.56 87.23 97.98 87.20 91.40 C 78.45 100.24 69.38 108.79 60.93 117.91 Z" />
</g>
<g id="#ffffffff">
<path fill="#ffffff" opacity="1.00" d=" M 105.84 48.11 C 114.60 56.76 123.31 65.48 132.08 74.11 C 123.59 83.19 114.57 91.77 105.80 100.58 C 105.41 93.98 106.38 87.12 105.36 80.67 C 90.46 80.11 75.44 80.57 60.50 80.45 C 60.48 76.44 60.42 72.44 60.52 68.43 C 75.59 68.30 90.71 68.79 105.77 68.19 C 105.83 61.49 105.71 54.80 105.84 48.11 Z" />
<path fill="#ffffff" opacity="1.00" d=" M 60.93 117.91 C 69.38 108.79 78.45 100.24 87.20 91.40 C 87.23 97.98 87.26 104.56 87.20 111.13 C 88.42 111.46 89.67 111.66 90.95 111.60 C 104.80 111.50 118.65 111.61 132.50 111.54 C 132.53 115.55 132.58 119.56 132.50 123.58 C 117.41 123.70 102.29 123.20 87.23 123.83 C 87.16 130.50 87.35 137.18 87.15 143.85 C 78.34 135.27 69.70 126.52 60.93 117.91 Z" />
</g>
</svg>
