<?xml version="1.0" encoding="UTF-8" ?>
<!DOCTYPE svg PUBLIC "-//W3C//DTD SVG 1.1//EN" "http://www.w3.org/Graphics/SVG/1.1/DTD/svg11.dtd">
<svg width="192pt" height="192pt" viewBox="0 0 192 192" version="1.1" xmlns="http://www.w3.org/2000/svg">
<g id="#267f00ff">
<path fill="#267f00" opacity="1.00" d=" M 85.83 0.00 L 106.11 0.00 C 127.19 2.14 147.62 11.38 162.76 26.26 C 179.30 41.71 189.72 63.36 192.00 85.83 L 192.00 106.10 C 190.29 122.97 184.06 139.38 173.99 153.03 C 158.22 174.82 132.96 189.41 106.16 192.00 L 85.90 192.00 C 59.55 189.46 34.66 175.33 18.83 154.14 C 8.34 140.27 1.78 123.48 0.00 106.18 L 0.00 85.90 C 2.25 63.39 12.70 41.70 29.27 26.23 C 44.39 11.38 64.79 2.17 85.83 0.00 M 71.18 53.52 C 68.44 53.75 65.68 53.62 62.94 53.77 C 61.79 54.38 60.22 55.35 60.52 56.89 C 60.49 83.59 60.54 110.30 60.49 137.01 C 60.55 139.23 60.10 141.74 61.77 143.53 C 84.81 143.39 107.85 143.61 130.89 143.42 C 131.26 143.04 132.00 142.29 132.37 141.91 C 132.65 113.14 132.34 84.36 132.48 55.58 C 131.72 54.93 130.96 54.29 130.19 53.66 C 127.88 53.67 125.56 53.81 123.25 53.60 C 120.93 51.84 119.47 48.20 116.03 48.52 C 102.65 48.60 89.26 48.49 75.88 48.59 C 73.78 49.60 71.41 50.91 71.18 53.52 Z" />
<path fill="#267f00" opacity="1.00" d=" M 66.14 59.81 C 67.97 59.22 69.88 59.32 71.77 59.44 C 73.13 60.92 74.87 62.27 76.99 62.21 C 90.36 62.36 103.73 62.21 117.10 62.30 C 118.63 61.53 120.05 60.56 121.47 59.61 C 123.40 58.89 125.52 59.33 127.50 59.60 C 127.43 85.09 127.51 110.57 127.46 136.06 C 127.74 137.98 125.52 138.83 123.95 138.49 C 104.85 138.49 85.74 138.42 66.64 138.52 C 65.88 135.73 66.26 132.82 66.19 129.97 C 66.16 106.58 66.27 83.19 66.14 59.81 M 71.47 80.33 C 83.14 80.31 94.81 80.32 106.48 80.33 C 106.47 78.79 106.47 77.26 106.47 75.73 C 94.80 75.63 83.14 75.71 71.47 75.66 C 71.47 77.22 71.47 78.78 71.47 80.33 M 71.49 86.77 C 71.48 88.33 71.46 89.89 71.45 91.45 C 86.15 91.40 100.86 91.38 115.56 91.46 C 115.54 89.90 115.52 88.33 115.51 86.77 C 100.83 86.75 86.16 86.76 71.49 86.77 M 71.42 98.41 C 71.43 99.80 71.43 101.20 71.42 102.59 C 83.12 102.47 94.82 102.50 106.52 102.57 C 106.51 101.19 106.51 99.81 106.52 98.43 C 94.82 98.50 83.12 98.53 71.42 98.41 M 71.43 109.41 C 71.44 110.80 71.43 112.19 71.42 113.59 C 86.14 113.48 100.86 113.48 115.58 113.59 C 115.56 112.20 115.56 110.80 115.58 109.41 C 100.86 109.52 86.14 109.52 71.43 109.41 M 71.42 120.41 C 71.43 121.80 71.43 123.19 71.42 124.59 C 83.12 124.47 94.82 124.50 106.52 124.57 C 106.51 123.19 106.51 121.81 106.52 120.43 C 94.83 120.50 83.12 120.53 71.42 120.41 Z" />
</g>
<g id="#ffffffff">
<path fill="#ffffff" opacity="1.00" d=" M 71.18 53.52 C 71.41 50.91 73.78 49.60 75.88 48.59 C 89.26 48.49 102.65 48.60 116.03 48.52 C 119.47 48.20 120.93 51.84 123.25 53.60 C 125.56 53.81 127.88 53.67 130.19 53.66 C 130.96 54.29 131.72 54.93 132.48 55.58 C 132.34 84.36 132.65 113.14 132.37 141.91 C 132.00 142.29 131.26 143.04 130.89 143.42 C 107.85 143.61 84.81 143.39 61.77 143.53 C 60.10 141.74 60.55 139.23 60.49 137.01 C 60.54 110.30 60.49 83.59 60.52 56.89 C 60.22 55.35 61.79 54.38 62.94 53.77 C 65.68 53.62 68.44 53.75 71.18 53.52 M 66.14 59.81 C 66.27 83.19 66.16 106.58 66.19 129.97 C 66.26 132.82 65.88 135.73 66.64 138.52 C 85.74 138.42 104.85 138.49 123.95 138.49 C 125.52 138.83 127.74 137.98 127.46 136.06 C 127.51 110.57 127.43 85.09 127.50 59.60 C 125.52 59.33 123.40 58.89 121.47 59.61 C 120.05 60.56 118.63 61.53 117.10 62.30 C 103.73 62.21 90.36 62.36 76.99 62.21 C 74.87 62.27 73.13 60.92 71.77 59.44 C 69.88 59.32 67.97 59.22 66.14 59.81 Z" />
<path fill="#ffffff" opacity="1.00" d=" M 71.47 80.33 C 71.47 78.78 71.47 77.22 71.47 75.66 C 83.14 75.71 94.80 75.63 106.47 75.73 C 106.47 77.26 106.47 78.79 106.48 80.33 C 94.81 80.32 83.14 80.31 71.47 80.33 Z" />
<path fill="#ffffff" opacity="1.00" d=" M 71.49 86.77 C 86.16 86.76 100.83 86.75 115.51 86.77 C 115.52 88.33 115.54 89.90 115.56 91.46 C 100.86 91.38 86.15 91.40 71.45 91.45 C 71.46 89.89 71.48 88.33 71.49 86.77 Z" />
<path fill="#ffffff" opacity="1.00" d=" M 71.42 98.41 C 83.12 98.53 94.82 98.50 106.52 98.43 C 106.51 99.81 106.51 101.19 106.52 102.57 C 94.82 102.50 83.12 102.47 71.42 102.59 C 71.43 101.20 71.43 99.80 71.42 98.41 Z" />
<path fill="#ffffff" opacity="1.00" d=" M 71.43 109.41 C 86.14 109.52 100.86 109.52 115.58 109.41 C 115.56 110.80 115.56 112.20 115.58 113.59 C 100.86 113.48 86.14 113.48 71.42 113.59 C 71.43 112.19 71.44 110.80 71.43 109.41 Z" />
<path fill="#ffffff" opacity="1.00" d=" M 71.42 120.41 C 83.12 120.53 94.83 120.50 106.52 120.43 C 106.51 121.81 106.51 123.19 106.52 124.57 C 94.82 124.50 83.12 124.47 71.42 124.59 C 71.43 123.19 71.43 121.80 71.42 120.41 Z" />
</g>
</svg>
