<?xml version="1.0" encoding="UTF-8" ?>
<!DOCTYPE svg PUBLIC "-//W3C//DTD SVG 1.1//EN" "http://www.w3.org/Graphics/SVG/1.1/DTD/svg11.dtd">
<svg width="192pt" height="192pt" viewBox="0 0 192 192" version="1.1" xmlns="http://www.w3.org/2000/svg">
<g id="#267f00ff">
<path fill="#267f00" opacity="1.00" d=" M 85.45 0.00 L 106.51 0.00 C 127.69 2.27 148.22 11.66 163.29 26.78 C 179.48 42.06 189.63 63.37 192.00 85.45 L 192.00 106.50 C 188.68 140.89 165.14 172.27 133.13 185.19 C 124.66 188.75 115.66 190.99 106.53 192.00 L 85.49 192.00 C 64.32 189.72 43.79 180.34 28.72 165.22 C 12.52 149.94 2.36 128.61 0.00 106.52 L 0.00 85.49 C 2.36 63.36 12.55 42.01 28.78 26.72 C 43.83 11.64 64.32 2.29 85.45 0.00 M 56.44 48.22 C 53.51 50.85 50.88 53.78 48.03 56.49 C 48.48 57.17 48.99 57.79 49.56 58.37 C 61.83 70.53 73.96 82.82 86.24 94.97 C 87.03 95.72 86.54 97.10 85.68 97.61 C 73.05 110.02 60.69 122.71 48.04 135.09 C 50.57 138.40 53.73 141.21 56.80 144.02 C 69.59 131.12 82.48 118.33 95.30 105.47 C 95.64 105.46 96.32 105.46 96.66 105.45 C 109.18 117.95 121.69 130.47 134.19 142.98 C 134.53 143.22 135.19 143.71 135.53 143.96 C 138.31 141.00 141.40 138.32 144.02 135.20 C 131.11 122.57 118.63 109.46 105.54 97.03 C 105.33 96.29 105.40 95.61 105.74 94.99 C 118.44 82.36 131.12 69.70 143.74 56.99 C 141.96 53.64 138.27 51.10 135.60 48.24 L 134.99 48.29 C 122.49 60.70 110.02 73.14 97.63 85.67 C 97.13 86.53 95.72 87.02 94.97 86.24 C 83.00 74.14 70.90 62.19 58.92 50.11 C 58.10 49.51 57.56 48.22 56.44 48.22 Z" />
</g>
<g id="#ffffffff">
<path fill="#ffffff" opacity="1.00" d=" M 56.44 48.22 C 57.56 48.22 58.10 49.51 58.92 50.11 C 70.90 62.19 83.00 74.14 94.97 86.24 C 95.72 87.02 97.13 86.53 97.63 85.67 C 110.02 73.14 122.49 60.70 134.99 48.29 L 135.60 48.24 C 138.27 51.10 141.96 53.64 143.74 56.99 C 131.12 69.70 118.44 82.36 105.74 94.99 C 105.40 95.61 105.33 96.29 105.54 97.03 C 118.63 109.46 131.11 122.57 144.02 135.20 C 141.40 138.32 138.31 141.00 135.53 143.96 C 135.19 143.71 134.53 143.22 134.19 142.98 C 121.69 130.47 109.18 117.95 96.66 105.45 C 96.32 105.46 95.64 105.46 95.30 105.47 C 82.48 118.33 69.59 131.12 56.80 144.02 C 53.73 141.21 50.57 138.40 48.04 135.09 C 60.69 122.71 73.05 110.02 85.68 97.61 C 86.54 97.10 87.03 95.72 86.24 94.97 C 73.96 82.82 61.83 70.53 49.56 58.37 C 48.99 57.79 48.48 57.17 48.03 56.49 C 50.88 53.78 53.51 50.85 56.44 48.22 Z" />
</g>
</svg>
