<?xml version="1.0" encoding="UTF-8" ?>
<!DOCTYPE svg PUBLIC "-//W3C//DTD SVG 1.1//EN" "http://www.w3.org/Graphics/SVG/1.1/DTD/svg11.dtd">
<svg width="192pt" height="192pt" viewBox="0 0 192 192" version="1.1" xmlns="http://www.w3.org/2000/svg">
<g id="#267f00ff">
<path fill="#267f00" opacity="1.00" d=" M 85.40 0.00 L 106.56 0.00 C 122.98 1.90 139.00 7.80 152.39 17.56 C 174.45 33.21 189.14 58.53 192.00 85.41 L 192.00 106.59 C 189.55 128.16 179.91 149.05 164.28 164.23 C 149.09 179.89 128.18 189.55 106.57 192.00 L 85.43 192.00 C 63.84 189.53 42.92 179.90 27.73 164.24 C 12.10 149.06 2.47 128.16 0.00 106.59 L 0.00 85.41 C 2.45 63.83 12.09 42.94 27.73 27.76 C 42.92 12.11 63.81 2.46 85.40 0.00 M 52.14 66.08 C 46.49 76.05 46.07 88.68 51.16 98.97 C 55.18 107.61 62.87 114.43 71.96 117.31 C 77.22 118.83 82.80 120.27 88.25 118.80 C 90.58 118.53 92.84 117.93 95.09 117.30 C 99.88 115.82 103.73 112.55 108.05 110.15 C 109.20 112.32 109.68 114.71 109.57 117.16 C 118.58 126.16 127.50 135.25 136.64 144.11 C 139.15 141.66 141.64 139.18 144.12 136.68 C 135.33 127.47 126.15 118.62 117.19 109.56 C 114.72 109.70 112.33 109.18 110.14 108.04 C 112.76 103.44 116.33 99.29 117.55 94.01 C 120.20 86.86 119.77 79.07 117.31 71.95 C 113.71 60.81 104.25 51.89 92.94 48.87 C 77.57 44.18 59.63 51.93 52.14 66.08 Z" />
<path fill="#267f00" opacity="1.00" d=" M 76.41 58.68 C 90.34 53.92 106.68 64.47 108.79 78.89 C 110.54 84.64 108.35 90.55 106.19 95.87 C 103.60 100.04 100.07 103.58 95.90 106.18 C 90.92 108.25 85.38 110.13 79.95 108.90 C 69.83 107.87 61.00 99.77 58.53 90.00 C 54.48 77.04 63.32 61.94 76.41 58.68 Z" />
</g>
<g id="#ffffffff">
<path fill="#ffffff" opacity="1.00" d=" M 52.14 66.08 C 59.63 51.93 77.57 44.18 92.94 48.87 C 104.25 51.89 113.71 60.81 117.31 71.95 C 119.77 79.07 120.20 86.86 117.55 94.01 C 116.33 99.29 112.76 103.44 110.14 108.04 C 112.33 109.18 114.72 109.70 117.19 109.56 C 126.15 118.62 135.33 127.47 144.12 136.68 C 141.64 139.18 139.15 141.66 136.64 144.11 C 127.50 135.25 118.58 126.16 109.57 117.16 C 109.68 114.71 109.20 112.32 108.05 110.15 C 103.73 112.55 99.88 115.82 95.09 117.30 C 92.84 117.93 90.58 118.53 88.25 118.80 C 82.80 120.27 77.22 118.83 71.96 117.31 C 62.87 114.43 55.18 107.61 51.16 98.97 C 46.07 88.68 46.49 76.05 52.14 66.08 M 76.41 58.68 C 63.32 61.94 54.48 77.04 58.53 90.00 C 61.00 99.77 69.83 107.87 79.95 108.90 C 85.38 110.13 90.92 108.25 95.90 106.18 C 100.07 103.58 103.60 100.04 106.19 95.87 C 108.35 90.55 110.54 84.64 108.79 78.89 C 106.68 64.47 90.34 53.92 76.41 58.68 Z" />
</g>
</svg>
