<?xml version="1.0" encoding="UTF-8" ?>
<!DOCTYPE svg PUBLIC "-//W3C//DTD SVG 1.1//EN" "http://www.w3.org/Graphics/SVG/1.1/DTD/svg11.dtd">
<svg width="192pt" height="192pt" viewBox="0 0 192 192" version="1.1" xmlns="http://www.w3.org/2000/svg">
<g id="#267f00ff">
<path fill="#267f00" opacity="1.00" d=" M 85.59 0.00 L 106.38 0.00 C 127.60 2.18 148.14 11.63 163.26 26.73 C 179.47 42.06 189.72 63.41 192.00 85.58 L 192.00 106.39 C 188.78 140.85 165.13 172.26 133.12 185.22 C 124.60 188.75 115.59 191.07 106.41 192.00 L 85.62 192.00 C 52.01 188.81 21.16 166.28 7.76 135.32 C 3.65 126.18 1.01 116.38 0.00 106.41 L 0.00 85.59 C 0.93 76.41 3.25 67.39 6.78 58.88 C 19.74 26.87 51.14 3.23 85.59 0.00 M 53.70 48.73 C 49.61 50.25 47.57 54.88 47.50 58.98 C 47.53 83.98 47.46 108.98 47.53 133.97 C 47.76 139.55 52.41 144.23 57.98 144.48 C 83.31 144.51 108.64 144.51 133.97 144.48 C 139.54 144.25 144.24 139.60 144.48 134.02 C 144.56 119.83 144.41 105.64 144.55 91.45 C 141.23 91.52 137.90 91.52 134.57 91.48 C 134.67 104.66 134.56 117.84 134.63 131.02 C 134.42 132.36 135.26 135.02 133.00 134.60 C 108.36 134.64 83.71 134.63 59.07 134.59 C 56.76 135.07 57.56 132.44 57.37 131.07 C 57.56 106.58 57.11 82.07 57.59 57.61 C 75.53 57.08 93.55 57.50 111.52 57.40 C 111.48 54.09 111.48 50.77 111.55 47.45 C 95.68 47.57 79.81 47.47 63.94 47.50 C 60.51 47.59 56.84 46.95 53.70 48.73 M 137.06 56.20 C 136.89 56.65 136.54 57.56 136.36 58.02 C 123.07 70.83 110.21 84.11 97.08 97.09 C 94.90 99.11 93.11 101.66 90.40 103.02 C 84.97 97.13 78.84 91.98 73.19 86.34 C 71.80 89.15 69.12 90.97 66.98 93.16 C 70.14 96.92 73.84 100.17 77.24 103.71 C 81.84 108.00 85.85 112.96 90.85 116.79 C 108.34 98.93 126.30 81.51 143.75 63.62 C 142.43 60.60 138.94 58.95 137.06 56.20 Z" />
</g>
<g id="#ffffffff">
<path fill="#ffffff" opacity="1.00" d=" M 53.70 48.73 C 56.84 46.95 60.51 47.59 63.94 47.50 C 79.81 47.47 95.68 47.57 111.55 47.45 C 111.48 50.77 111.48 54.09 111.52 57.40 C 93.55 57.50 75.53 57.08 57.59 57.61 C 57.11 82.07 57.56 106.58 57.37 131.07 C 57.56 132.44 56.76 135.07 59.07 134.59 C 83.71 134.63 108.36 134.64 133.00 134.60 C 135.26 135.02 134.42 132.36 134.63 131.02 C 134.56 117.84 134.67 104.66 134.57 91.48 C 137.90 91.52 141.23 91.52 144.55 91.45 C 144.41 105.64 144.56 119.83 144.48 134.02 C 144.24 139.60 139.54 144.25 133.97 144.48 C 108.64 144.51 83.31 144.51 57.98 144.48 C 52.41 144.23 47.76 139.55 47.53 133.97 C 47.46 108.98 47.53 83.98 47.50 58.98 C 47.57 54.88 49.61 50.25 53.70 48.73 Z" />
<path fill="#ffffff" opacity="1.00" d=" M 137.06 56.20 C 138.94 58.95 142.43 60.60 143.75 63.62 C 126.30 81.51 108.34 98.93 90.85 116.79 C 85.85 112.96 81.84 108.00 77.24 103.71 C 73.84 100.17 70.14 96.92 66.98 93.16 C 69.12 90.97 71.80 89.15 73.19 86.34 C 78.84 91.98 84.97 97.13 90.40 103.02 C 93.11 101.66 94.90 99.11 97.08 97.09 C 110.21 84.11 123.07 70.83 136.36 58.02 C 136.54 57.56 136.89 56.65 137.06 56.20 Z" />
</g>
</svg>
