<?xml version="1.0" encoding="UTF-8" ?>
<!DOCTYPE svg PUBLIC "-//W3C//DTD SVG 1.1//EN" "http://www.w3.org/Graphics/SVG/1.1/DTD/svg11.dtd">
<svg width="192pt" height="192pt" viewBox="0 0 192 192" version="1.1" xmlns="http://www.w3.org/2000/svg">
<g id="#267f00ff">
<path fill="#267f00" opacity="1.00" d=" M 85.63 0.00 L 106.35 0.00 C 133.34 2.58 158.67 17.52 174.41 39.52 C 184.20 52.98 190.31 69.06 192.00 85.61 L 192.00 106.34 C 189.87 127.35 180.58 147.68 165.76 162.75 C 150.36 179.24 128.81 189.73 106.39 192.00 L 85.66 192.00 C 51.19 188.82 19.75 165.15 6.78 133.12 C 3.24 124.60 0.92 115.58 0.00 106.39 L 0.00 85.68 C 0.89 76.47 3.24 67.43 6.78 58.89 C 19.74 26.87 51.17 3.20 85.63 0.00 M 107.89 61.49 C 104.99 61.02 102.01 58.42 99.08 60.15 C 95.46 62.17 93.05 65.73 89.97 68.43 C 97.45 76.44 105.50 83.91 113.13 91.78 C 115.81 88.95 118.74 86.34 121.35 83.44 C 123.46 81.21 122.08 78.01 120.61 75.86 C 120.59 75.16 120.56 73.76 120.54 73.05 C 123.62 70.33 126.40 67.29 129.36 64.44 C 131.43 62.41 133.54 60.05 133.60 56.98 C 131.64 53.35 128.63 50.42 125.05 48.40 C 117.42 49.48 114.23 58.00 107.89 61.49 M 68.51 99.72 C 68.62 103.86 68.13 108.07 68.71 112.18 C 69.04 112.44 69.69 112.96 70.01 113.22 C 74.90 112.84 81.08 115.01 84.75 110.74 C 91.68 103.80 98.62 96.88 105.57 89.98 C 100.96 85.45 96.39 80.88 91.83 76.30 C 84.12 84.17 76.16 91.80 68.51 99.72 M 67.06 118.19 C 62.71 121.61 60.36 126.92 58.81 132.09 C 56.87 138.84 65.09 146.01 71.45 142.67 C 75.34 141.35 77.80 137.04 77.48 133.06 C 76.43 128.77 74.56 124.64 71.91 121.10 C 70.58 119.75 69.29 117.48 67.06 118.19 Z" />
</g>
<g id="#ffffffff">
<path fill="#ffffff" opacity="1.00" d=" M 107.89 61.49 C 114.23 58.00 117.42 49.48 125.05 48.40 C 128.63 50.42 131.64 53.35 133.60 56.98 C 133.54 60.05 131.43 62.41 129.36 64.44 C 126.40 67.29 123.62 70.33 120.54 73.05 C 120.56 73.76 120.59 75.16 120.61 75.86 C 122.08 78.01 123.46 81.21 121.35 83.44 C 118.74 86.34 115.81 88.95 113.13 91.78 C 105.50 83.91 97.45 76.44 89.97 68.43 C 93.05 65.73 95.46 62.17 99.08 60.15 C 102.01 58.42 104.99 61.02 107.89 61.49 Z" />
<path fill="#ffffff" opacity="1.00" d=" M 68.51 99.72 C 76.16 91.80 84.12 84.17 91.83 76.30 C 96.39 80.88 100.96 85.45 105.57 89.98 C 98.62 96.88 91.68 103.80 84.75 110.74 C 81.08 115.01 74.90 112.84 70.01 113.22 C 69.69 112.96 69.04 112.44 68.71 112.18 C 68.13 108.07 68.62 103.86 68.51 99.72 Z" />
<path fill="#ffffff" opacity="1.00" d=" M 67.06 118.19 C 69.29 117.48 70.58 119.75 71.91 121.10 C 74.56 124.64 76.43 128.77 77.48 133.06 C 77.80 137.04 75.34 141.35 71.45 142.67 C 65.09 146.01 56.87 138.84 58.81 132.09 C 60.36 126.92 62.71 121.61 67.06 118.19 Z" />
</g>
</svg>
