<?xml version="1.0" encoding="UTF-8" ?>
<!DOCTYPE svg PUBLIC "-//W3C//DTD SVG 1.1//EN" "http://www.w3.org/Graphics/SVG/1.1/DTD/svg11.dtd">
<svg width="192pt" height="192pt" viewBox="0 0 192 192" version="1.1" xmlns="http://www.w3.org/2000/svg">
<g id="#267f00ff">
<path fill="#267f00" opacity="1.00" d=" M 85.52 0.00 L 106.43 0.00 C 140.87 3.24 172.26 26.87 185.22 58.88 C 188.75 67.37 191.04 76.35 192.00 85.49 L 192.00 106.45 C 188.75 140.88 165.13 172.25 133.13 185.21 C 124.64 188.74 115.65 191.04 106.50 192.00 L 85.54 192.00 C 64.58 189.80 44.28 180.54 29.23 165.75 C 12.78 150.37 2.34 128.85 0.00 106.49 L 0.00 85.54 C 2.29 63.39 12.54 42.04 28.76 26.72 C 43.85 11.64 64.34 2.22 85.52 0.00 M 80.91 50.16 C 66.51 54.79 54.78 66.50 50.17 80.91 C 46.66 90.59 46.67 101.40 50.16 111.09 C 54.79 125.48 66.54 137.18 80.90 141.83 C 86.70 143.70 92.91 144.75 99.01 144.41 C 103.03 143.44 107.26 143.53 111.10 141.84 C 125.45 137.17 137.22 125.48 141.84 111.09 C 145.33 101.40 145.35 90.60 141.84 80.91 C 137.22 66.50 125.50 54.78 111.10 50.16 C 101.41 46.68 90.59 46.67 80.91 50.16 Z" />
<path fill="#267f00" opacity="1.00" d=" M 85.42 57.70 C 94.93 55.20 105.54 55.99 114.23 60.80 C 125.30 66.28 133.02 77.38 135.29 89.42 C 136.17 97.37 135.67 105.72 131.86 112.91 C 126.79 124.12 116.07 132.29 104.14 134.93 C 93.12 137.15 81.24 134.66 72.28 127.78 C 57.41 117.15 51.82 95.51 60.12 79.14 C 64.84 68.69 74.46 60.83 85.42 57.70 M 91.57 72.19 C 91.52 81.61 91.61 91.03 91.52 100.44 C 99.72 105.67 108.08 110.65 116.33 115.81 C 117.52 114.08 118.66 112.32 119.78 110.55 C 112.77 106.34 105.93 101.72 98.59 98.11 C 97.41 89.55 98.78 80.80 97.90 72.21 C 95.87 71.39 93.65 72.00 91.57 72.19 Z" />
</g>
<g id="#ffffffff">
<path fill="#ffffff" opacity="1.00" d=" M 80.91 50.16 C 90.59 46.67 101.41 46.68 111.10 50.16 C 125.50 54.78 137.22 66.50 141.84 80.91 C 145.35 90.60 145.33 101.40 141.84 111.09 C 137.22 125.48 125.45 137.17 111.10 141.84 C 107.26 143.53 103.03 143.44 99.01 144.41 C 92.91 144.75 86.70 143.70 80.90 141.83 C 66.54 137.18 54.79 125.48 50.16 111.09 C 46.67 101.40 46.66 90.59 50.17 80.91 C 54.78 66.50 66.51 54.79 80.91 50.16 M 85.42 57.70 C 74.46 60.83 64.84 68.69 60.12 79.14 C 51.82 95.51 57.41 117.15 72.28 127.78 C 81.24 134.66 93.12 137.15 104.14 134.93 C 116.07 132.29 126.79 124.12 131.86 112.91 C 135.67 105.72 136.17 97.37 135.29 89.42 C 133.02 77.38 125.30 66.28 114.23 60.80 C 105.54 55.99 94.93 55.20 85.42 57.70 Z" />
<path fill="#ffffff" opacity="1.00" d=" M 91.57 72.19 C 93.65 72.00 95.87 71.39 97.90 72.21 C 98.78 80.80 97.41 89.55 98.59 98.11 C 105.93 101.72 112.77 106.34 119.78 110.55 C 118.66 112.32 117.52 114.08 116.33 115.81 C 108.08 110.65 99.72 105.67 91.52 100.44 C 91.61 91.03 91.52 81.61 91.57 72.19 Z" />
</g>
</svg>
